<?xml version="1.0" encoding="UTF-8"?>
<svg id="Layer_1" data-name="Layer 1" xmlns="http://www.w3.org/2000/svg" viewBox="0 0 595.28 327.17">
  <defs>
    <style>
      .cls-1 {
        fill: #00bfdf;
      }

      .cls-2 {
        fill: #284181;
      }

      .cls-3 {
        fill: #f79433;
      }
    </style>
  </defs>
  <path class="cls-2" d="M163.66,155.25s-22.21,75.63-23.42,80.51c-1.22,4.88-3.46,8.35-8.69,8.35h-25.28l-25.86-88.86-10.4,88.86h-32.82l17.81-130.69h35.68c4.29,0,7.1,3.4,8.27,7.58,1.17,4.18,23.1,82.48,23.1,82.48l25.22-90.07h35.5c4.29,0,6.7,2.66,7.37,7.62.67,4.95,16.77,123.07,16.77,123.07h-32.82l-10.41-88.86Z"/>
  <path class="cls-2" d="M275.02,110.82c-37.63,0-59.23,15.01-59.23,41.63,0,49.23,74.25,29.22,74.25,53.63,0,9.41-10.61,14.01-31.42,14.01-14.15,0-25.34-1.99-38.48-6.36,1.09,7.98,2.05,15,2.76,20.28.62,4.57,2.52,7.87,6.37,8.86,9.57,2.46,19.62,3.83,30.95,3.83,40.02,0,63.24-15.61,63.24-43.02,0-49.03-74.25-29.62-74.25-53.64,0-8.4,9-12.61,27.61-12.61,13.97,0,24.77,2.19,37.34,6.38,0,0,2.11-15.2,2.55-18.76.45-3.55.61-6.44-3.31-7.81-11.94-4.18-24.39-6.42-38.39-6.42"/>
  <path class="cls-2" d="M403.53,219.49c-23.82,0-36.22-13.41-36.22-39.83s12.61-41.63,37.22-41.63c9.4,0,20.2,2,31.19,5.79,0,0,1.87-13.7,2.43-17.82.56-4.12-.33-7.75-4.37-9.16-11.41-3.97-24.2-6.03-36.86-6.03-41.63,0-62.64,23.62-62.64,68.65s21.01,67.25,62.24,67.25c13.61,0,26.88-2.37,38.84-6.74,2.96-1.08,3.5-3.21,2.96-7.23-.55-4.02-2.59-19.05-2.59-19.05-11.6,3.8-22.81,5.8-32.2,5.8"/>
  <path class="cls-3" d="M475.87,80.64l14.32,58.73c1.09,4.34,5.98,6.38,9.7,2.98l71.63-70.64c9.68-8.78,1.56-24.71-11.23-22.04l-72.16,11.53c-8.85,1.85-14.4,10.66-12.26,19.44"/>
  <path class="cls-1" d="M491.44,141.92c-.48-.62-.81-1.39-1.05-2.25l-31.94-110.01c-3.64-12.54,11.61-21.86,21.11-12.88l63.11,59.69c6.72,6.35,6.83,17,.26,23.5l-42.75,42.29s-1.89,1.77-4.32,1.79c-2.78.03-4.41-2.13-4.41-2.13"/>
  <path class="cls-2" d="M515.29,79.19c-.06.96-.25,1.91-.47,2.86l-13.52,57.46c-.62,2.62-2.64,4.26-4.87,4.51-.35.04-.71.04-1.08.01-1.15-.1-2.32-.58-3.33-1.49l-95.09-95.16c-8.81-7.9-3.05-21.77,7.64-22.36,1.78-.1,3.54.29,5.2.92l93.53,35.4c9.28,3.41,12.53,9.77,11.98,17.86"/>
  <polygon class="cls-1" points="66.04 283.78 59.73 306.75 52.63 306.75 46.32 283.78 43.34 306.75 37.18 306.75 41.49 276.44 49.42 276.44 56.21 299.41 62.93 276.44 70.87 276.44 75.18 306.75 69.01 306.75 66.04 283.78"/>
  <g>
    <path class="cls-1" d="M80.76,284.65h5.8v22.09h-5.8v-22.09ZM80.43,278.99c0-1.71,1.21-2.73,3.21-2.73s3.25,1.02,3.25,2.73-1.21,2.78-3.25,2.78-3.21-1.07-3.21-2.78"/>
    <path class="cls-1" d="M110.5,305.68c-2.41,1.11-5.24,1.67-7.89,1.67-7.56,0-11.09-4.36-11.09-11.23s3.43-12.07,11.32-12.07c2.46,0,5.2.46,7.52,1.62l-.88,4.18c-1.95-.74-3.39-1.03-5.01-1.03-4.88,0-6.97,2.37-6.97,6.92,0,4.79,2.09,6.82,6.54,6.82,1.91,0,3.62-.37,5.57-1.11l.88,4.23Z"/>
    <path class="cls-1" d="M120.95,288.93c1.86-3.86,5.24-5.01,8.44-5.01v5.34c-4.22,0-6.72.97-8.31,3.01v14.48h-5.76v-22.09h5.02l.6,4.27Z"/>
    <path class="cls-1" d="M148.33,295.7c0-4.73-1.67-6.96-5.25-6.96s-5.43,2.23-5.43,6.96,1.72,6.97,5.29,6.97,5.38-2.23,5.38-6.97M154.36,295.7c0,7.66-3.9,11.65-11.79,11.65-7.19,0-10.91-3.99-10.91-11.65s3.9-11.64,11.79-11.64c7.19,0,10.91,3.98,10.91,11.64"/>
    <path class="cls-1" d="M180.17,282.52c-2.83-1.03-5.43-1.57-8.77-1.57-4.68,0-7.05,1.2-7.05,3.61,0,6.5,17.87,1.9,17.87,13.27,0,6.08-5.11,9.51-14.02,9.51-3.94,0-7.19-.65-10.25-1.99l.94-4.69c2.96,1.12,5.61,1.58,8.95,1.58,5.34,0,8.08-1.39,8.08-4,0-6.59-17.87-1.9-17.87-13.27,0-5.89,4.73-9.14,13.04-9.14,3.72,0,6.97.7,10.03,2.01l-.93,4.68Z"/>
    <path class="cls-1" d="M200.31,300.76v.09c-1.57,1.48-3.25,2.28-4.97,2.28-2.13,0-3.57-1.07-3.57-2.97,0-2.55,3.11-4.18,8.54-4.41v5.02ZM196.88,284.05c-3.66,0-7.1,1.07-9.84,2.73l.78,3.95c3.07-1.39,5.57-2.04,8.08-2.04h.15c.35,0,.67.03.97.07,2.25.31,3.3,1.63,3.3,3.92v.6c-9.28.19-14.48,2.83-14.48,7.99,0,3.84,2.79,6.08,7.1,6.08,3.15,0,5.84-1.17,7.74-3.48v3.46h5.43v-14.04c0-6.18-3.02-9.23-9.23-9.23"/>
  </g>
  <polygon class="cls-1" points="226.03 306.75 217.91 306.75 209.46 284.66 215.91 284.66 221.98 302.99 228.03 284.66 234.42 284.66 226.03 306.75"/>
  <g>
    <path class="cls-1" d="M242.36,293.57h10.03c-.05-3.43-1.58-5.2-4.45-5.2-2.46,0-4.93,1.21-5.57,5.2M257.54,296.81h-15.31c.19,3.57,1.72,5.75,6.4,5.75,2.32,0,4.77-.55,7.24-1.8l.83,3.95c-2.73,1.71-6.63,2.64-9.93,2.64-6.96,0-10.58-4.18-10.58-10.87,0-7.93,4.45-12.43,11.47-12.43,5.98,0,9.98,3.25,9.98,10.91,0,.69-.05,1.39-.1,1.85"/>
    <path class="cls-1" d="M296.02,282.56c-2.64-1.02-5.29-1.57-7.61-1.57-6.22,0-9.42,3.8-9.42,10.81s3.2,10.4,9.28,10.4c2.32,0,5.01-.56,7.75-1.58l.93,4.69c-3.07,1.35-6.55,2.04-10.03,2.04-9.37,0-14.15-5.34-14.15-15.59s4.78-15.92,14.25-15.92c3.48,0,6.91.7,9.88,2.04l-.88,4.69Z"/>
    <path class="cls-1" d="M316.06,295.7c0-4.73-1.67-6.96-5.24-6.96s-5.43,2.23-5.43,6.96,1.71,6.97,5.29,6.97,5.38-2.23,5.38-6.97M322.1,295.7c0,7.66-3.9,11.65-11.79,11.65-7.19,0-10.91-3.99-10.91-11.65s3.9-11.64,11.79-11.64c7.19,0,10.91,3.98,10.91,11.64"/>
    <path class="cls-1" d="M347.49,292.31v14.43h-5.75v-13.45c0-3.21-1.48-4.74-4.14-4.74-1.9,0-3.57.93-5.01,2.55v15.64h-5.76v-22.09h5.02l.56,3.71c1.9-2.73,4.78-4.31,7.89-4.31,4.41,0,7.19,2.97,7.19,8.26"/>
    <path class="cls-1" d="M369.77,285.03l-.74,3.94c-1.67-.46-3.75-.69-5.57-.69-2.97,0-5.11.6-5.11,2.41,0,4.18,12.58,1.21,12.58,9.33,0,4.55-3.9,7.33-10.35,7.33-3.15,0-6.12-.7-8.21-1.71l.83-4c1.81.79,4.23,1.48,6.73,1.48,3.11,0,4.96-1.11,4.96-2.83,0-4.5-12.34-1.2-12.34-9.42,0-4.5,3.76-6.82,10.3-6.82,2.6,0,5.16.37,6.92.98"/>
    <path class="cls-1" d="M396.17,306.75h-5.01l-.65-3.57c-1.81,2.55-4.55,4.18-7.85,4.18-4.5,0-7.19-2.97-7.19-8.26v-14.43h5.81v13.46c0,3.2,1.3,4.73,3.99,4.73,2.09,0,3.66-.92,5.1-2.55v-15.64h5.8v22.09Z"/>
  </g>
  <rect class="cls-1" x="402.67" y="274.26" width="5.76" height="32.48"/>
  <g>
    <path class="cls-1" d="M417.25,278.49h4.59v6.17h4.59v4.5h-4.59v10.63c0,1.95.83,2.83,2.69,2.83.83,0,1.67-.19,2.46-.6l.84,4.13c-1.39.83-3.16,1.21-5.06,1.21-4.69,0-6.68-2.13-6.68-6.82v-22.03h1.16"/>
    <path class="cls-1" d="M432.98,284.65h5.81v22.09h-5.81v-22.09ZM432.66,278.99c0-1.71,1.2-2.73,3.2-2.73s3.25,1.02,3.25,2.73-1.21,2.78-3.25,2.78-3.2-1.07-3.2-2.78"/>
    <path class="cls-1" d="M466.16,292.31v14.43h-5.75v-13.45c0-3.21-1.48-4.74-4.13-4.74-1.91,0-3.57.93-5.02,2.55v15.64h-5.76v-22.09h5.02l.56,3.71c1.9-2.73,4.77-4.31,7.88-4.31,4.41,0,7.19,2.97,7.19,8.26"/>
  </g>
  <polygon class="cls-1" points="488.73 287.35 491.9 293.69 495.36 286.38 490.82 284.23 488.73 287.35"/>
  <path class="cls-1" d="M476.88,291.94c0,2.55,1.82,3.81,5.53,3.81s5.57-1.26,5.57-3.81-1.81-3.8-5.57-3.8-5.53,1.21-5.53,3.8M489.41,309.81c0-3.9-6.77-3.52-12.01-4.23-1.12,1.21-1.72,2.64-1.72,4,0,2.22,1.62,4.26,7.1,4.26,4.69,0,6.63-1.85,6.63-4.03M490.85,286.32c1.62,1.35,2.41,3.25,2.41,5.57,0,4.92-3.34,7.99-10.86,7.99-2.28,0-4.13-.28-5.66-.79-.33.42-.51.83-.51,1.25,0,4.04,19.17-1.3,19.17,9.14,0,4.36-3.62,8.26-13.46,8.26-8.17,0-11.88-2.55-11.88-7.19,0-2.64,1.25-4.68,3.06-6.12-1.07-.6-1.72-1.48-1.72-2.79,0-1.85,1.35-3.3,2.55-4.08-1.62-1.39-2.41-3.3-2.41-5.66,0-4.82,3.34-7.84,10.86-7.84,3.02,0,5.38.51,7.1,1.39"/>
</svg>